<?xml version="1.0" encoding="utf-8"?>
<!-- Generator: Adobe Illustrator 25.4.1, SVG Export Plug-In . SVG Version: 6.00 Build 0)  -->
<svg version="1.1" id="Contours" xmlns="http://www.w3.org/2000/svg" xmlns:xlink="http://www.w3.org/1999/xlink" x="0px" y="0px"
	 viewBox="0 0 3392.8 3392.8" style="enable-background:new 0 0 3392.8 3392.8;" xml:space="preserve">
<path d="M1706.2,1532.9c4.5-0.8,10.2,1.7,13.2-1.8c8.2,2.2,14.7,9.8,15.7,18.2c1,8.4-3.6,17.3-11,21.3c-1.3,0.7-2.6,1.3-4,1.4
	c-1.2,0.1-2.5,0-3.7-0.2c-6.4-0.8-13.6-2-17.4-7.3c-3.1-4.2-3-9.9-2.6-15C1696.9,1542.6,1699.4,1534.1,1706.2,1532.9z"/>
<path d="M1892.5,1735.5c4.8,1.3,9.5,3.9,12.2,8.1c1.2,1.8,1.9,3.9,2.4,6c1.7,8.1-1.7,17-8.4,21.8s-16.4,4.9-23.1,0.2
	c-3-2.1-5.4-5.2-6.8-8.6c-1.7-4.2-1.8-8.9-0.6-13.2c0.8-2.8,2.1-5.4,3.9-7.7c2.2-2.9,5.1-5.4,8.6-6.6
	C1884.5,1734.1,1888.7,1734.5,1892.5,1735.5z"/>
<path d="M1643.6,1814.2c-2.8,3.4-6.8,5.9-11.2,6.5c-1.8,0.3-3.7,0.2-5.5-0.1c-6.6-1.2-12.3-5.8-15.7-11.5c-1.7-2.7-2.9-6-2.2-9.1
	c1-4.5,2.1-9.1,4.7-12.9c4.5-6.5,13.8-9.2,21.1-6.3c3.1,1.3,6.4,2.6,8.8,4.9c3.4,3.2,4.9,8,5.1,12.6c0.1,2.9-0.2,5.8-1.1,8.6
	C1646.8,1809.5,1645.4,1812,1643.6,1814.2z"/>
<path d="M1779,1868.8c-2.5,0.2-5.3,0-7.3,1.6c-1,0.8-2.6,0.1-3.7-0.6c-2.3-1.5-4.5-3-6.8-4.4c-5.9-3.9-9.1-11.4-7.8-18.4
	c0.4-2.1,1.1-4,2.2-5.9c4.6-8.3,15.3-12.6,24.4-9.8s15.5,12.3,14.7,21.7C1794,1861,1787,1868.1,1779,1868.8z"/>
<path d="M1612.3,1669.8c-2.1,1.6-4.6,2.5-7.1,3.1c-7.2,1.5-15.1,0.1-20.7-4.7c-5.6-4.8-8.2-13-5.5-19.8c3.3-8.2,11.7-14.2,20.5-14.5
	c7,0.6,13.7,4.7,17.5,10.7c1.6,2.6,1.8,5.8,1.7,8.9C1618.4,1659.5,1617,1666.1,1612.3,1669.8z"/>
<path d="M1875.5,1614.7c-5.1,7.5-16,10.4-24.2,6.4c-8.3-4-12.7-14.3-10.6-23.2c1.5-6.4,6.1-11.9,12-14.6c1.3-0.6,2.7-1,4-0.6
	c2,0.7,3.9,3.5,5.6,2.2c2.1-1.6,5-2.1,7.5-1.3c2.7,0.9,4.8,3.2,6.3,5.7c3.9,6.5,4.4,15,1.3,21.9
	C1876.9,1612.5,1876.2,1613.6,1875.5,1614.7z"/>
<path d="M1631.4,2144.8c-0.9-0.3-0.4-2.1,0.5-1.8c0,0.6,0.1,1.3,0.1,1.9L1631.4,2144.8z"/>
<path d="M1792.7,1615.4c39.2,21.9,59.6,72.8,46.3,115.7s-58.7,73.5-103.4,69.6c-44.8-3.9-84.2-42-89.7-86.5
	c-5.4-43.5,21.9-89,62.9-104.8c15.5-6,32.6-7.9,49.1-5.6C1770.1,1605.4,1782,1609.4,1792.7,1615.4 M1816.4,1715.7
	c0.9,8.4,1.7,17-0.5,25.1c-0.3,1.2,1.3,2.2,2.5,1.8c1.2-0.4,1.9-1.6,2.5-2.7c9.9-18.5,12.6-40.7,7.4-61
	c-5.2-20.3-18.3-38.5-35.9-49.9c-1.3-0.8-2.7-1.7-4.2-1.9c-1.4-0.2-2.9,0.2-4.2,0.7c-4.9,2.1-8.4,7.1-8.7,12.5
	c-0.3,5.3,2.7,10.7,7.4,13.3c12.1,6.8,21.8,17.7,27.1,30.6C1813.9,1694.2,1815.2,1705,1816.4,1715.7 M1737.1,1618.3
	c-4.1,4.7-4.3,12.4-0.5,17.3s11.2,6.7,16.8,4c5.6-2.7,8.9-9.6,7.4-15.6c-1.4-5.9-7.1-10.4-13.2-10.5c-1.9,0-3.7,0.3-5.4,1
	C1740.3,1615.4,1738.5,1616.7,1737.1,1618.3z"/>
<path d="M3378,2300.1c-0.3-5.1-1.1-10.1-2.5-15c-0.5-1.9-1.1-4-1.2-6c-0.4-1.4-0.8-2.8-1.3-4.2c-0.3-0.8-0.6-1.7-0.8-2.5
	c-32.7-101.8-125.9-172.2-217.2-228.9c-223.9-138.9-470.9-240.6-727.7-299.5c18.9-295-173.3-591.4-450.4-694.4
	s-616.3-4.2-794.6,231.6c-349.1-57.8-694.6-137-1033.9-237.1c-35.7-10.5-69.9,29.9-67.5,67c2.4,37.1,28.4,68.1,54.4,94.6
	c240.3,244.4,582.8,352.9,910.7,452.8c-15.4,295.2,180.6,589.2,459,688.6s616.2-3.9,791.3-242.1c291,98.2,612.7,89,895.2,209.5
	c58.5,24.9,132.3,53.2,179.3,10.4c0,0.1,0,0.3,0,0.4c0.3-0.5,0.6-0.9,1-1.3c0.6-0.8,1.2-1.7,1.7-2.5c0.3-0.5,0.6-1,0.8-1.5
	c1.7-4.2,2.6-8.9,3.6-13.5C3378.1,2304.3,3378.2,2302.2,3378,2300.1z M3155.6,2095.3c3.5-3.1,9.6-6,12-2c2,3.3-1.3,7.1-4.3,9.5
	c-34.7,27.8-68.6,56.5-101.8,86.1c-2.5,2.3-5.9-2.3-5.3-5.7c1.1-5.9,6.2-10,10.9-13.7C3097.4,2145.8,3127,2121.1,3155.6,2095.3z
	 M3144.1,2077.6c3.3,0.3,5.9,5,3.3,7.1c-29,23.1-57.3,47-84.8,71.8c-1.9,1.7-4.2,3.5-6.6,2.9c-2.8-0.7-4-4.3-3.1-7.1
	c0.9-2.7,3.2-4.7,5.5-6.6l77-64.1C3137.8,2079.5,3140.8,2077.2,3144.1,2077.6z M3106.3,2048.1c3.6,1.9,2.7,8.4-1.3,9.3
	c-3.3,0.7-6,3.1-8.5,5.3c-13.9,12.2-27.7,24.4-41.6,36.6c-3.2,2.9-6.5,5.7-10.2,8c-2.6,1.6-6.4,2.8-8.5,0.6
	c-1.4-1.5-1.4-3.9-0.5-5.8c0.9-1.8,2.5-3.2,4.1-4.5c7.8-6.5,15.7-13,23.5-19.5c4.2-3.5,8.5-7,12.7-10.5l19.6-16.2
	C3098.7,2048.9,3102.8,2046.2,3106.3,2048.1z M3081,2033.4c2.4-0.5,5.3,0.4,6.1,2.7c1.2,3.2-2,6.1-4.7,8.1c-4,3-7.9,6.2-11.7,9.5
	c-6.2,5.2-12.3,10.3-18.5,15.5c-1.8,1.5-3.5,3-5.3,4.5c-5.5,4.6-11,9.2-16.5,13.8c-2.1,1.8-5.6-0.5-5.9-3.3
	c-0.3-2.7,1.5-5.3,3.4-7.3c2.1-2.2,4.5-4.2,6.8-6.2c13.3-11.2,26.7-22.4,40-33.7C3076.7,2035.5,3078.6,2033.9,3081,2033.4z
	 M3064,2020.3c2.2,1.1,3.4,4.4,1.5,6c-4.2,3.5-8.3,7.1-12.5,10.6c-5.7,4.8-11.3,9.7-17,14.5l-16.5,14.1c-1.9,1.6-4.9,1.6-6.8,0
	s-2.3-4.6-1-6.7c0.5-0.8,1.2-1.5,1.9-2.1c6.9-6.2,14-12.1,21.2-18c5.8-4.9,11.7-9.7,17.5-14.6
	C3055.7,2021.3,3060.1,2018.4,3064,2020.3z M3041.1,2005.2c2.8,0.2,5.3,3.6,3.6,5.9c-2.1,2.7-4.4,5.3-6.9,7.7
	c-2.4,2.3-5.1,4.4-7.7,6.5c-3.1,2.5-6.3,5-9.4,7.5c-6.2,4.9-12.3,9.8-18.5,14.7c-2.9,0.4-5.1-3.2-4.5-6c0.6-2.9,3-5,5.2-6.9
	c4.2-3.6,8.4-7.2,12.6-10.9c5.9-5.1,11.8-10.2,18-15C3035.8,2006.8,3038.3,2005,3041.1,2005.2z M3017.1,1992c2-0.5,4.4,0,5.4,1.8
	c1.6,2.8-1,6.1-3.4,8.2c-9.6,8.6-19.6,16.8-29.9,24.4c-1.2,0.9-2.5,1.8-3.9,1.5c-2-0.3-3-2.8-2.8-4.9c0.4-4,3.8-7,6.9-9.5l22.5-18.5
	C3013.4,1993.8,3015.1,1992.5,3017.1,1992z M2994.4,1979.6c3-0.5,6.6,1.6,6.6,4.7c-0.1,2.3-2,4-3.8,5.4c-1.4,1.1-2.7,2.2-4.1,3.2
	c-4.9,3.9-9.8,7.8-14.8,11.7c-2.3,1.8-4.9,3.7-7.8,3.4c-2.9-0.3-5.2-4.3-3.1-6.2c6.4-5.9,12.9-11.7,19.3-17.6
	C2988.9,1982.2,2991.3,1980.1,2994.4,1979.6z M2956.6,1977.9c5.1-3.4,10.2-6.8,15.4-10.2c0.1,1.7,2.8,1.4,4.2,2.4
	c2.1,1.5,0,4.7-2,6.3c-4.3,3.4-8.7,6.9-13,10.3c-2.6,2.1-6.3,4.1-8.9,2.1c-1.8-1.4-1.8-4.3-0.7-6.3
	C2952.7,1980.5,2954.7,1979.2,2956.6,1977.9z M2934.6,1967.6c0.4-3.6,3.5-6.2,6.4-8.4c1.8-1.3,3.6-2.7,5.7-3.1
	c2.2-0.4,4.7,0.3,5.7,2.3c-0.5,3.2-2.1,6.2-4.5,8.3c-2.2,1.9-4.4,3.9-6.6,5.8C2938.6,1974.9,2934.1,1971.2,2934.6,1967.6z
	 M2918.6,1946.8c2.2-1.9,5.6-2.6,8.1-1.1c2.5,1.6,3.1,5.6,0.9,7.5c-1.1,0.9-2.6,1.3-3.4,2.4c-1.7,2.4-5.9,1.7-7.4-0.8
	S2916.5,1948.7,2918.6,1946.8z M1652.5,1036.8c192.8-24.6,395.5,39.9,537.7,172.4c142.3,132.5,221.2,330.5,207.9,524.5
	c7.2-185.7-66.4-373.3-198.6-503.9c-132.3-130.6-321.3-201.8-506.7-189.9c-185.5,11.9-364.2,107-476.8,254.8
	c-4.5,5.9-11.4,12.6-18.1,9.5C1304.9,1158.7,1473.2,1059.7,1652.5,1036.8z M2183.4,1238.8c-129.2-125.6-313.2-192.8-492.9-179.9
	s-352.3,105.7-462.1,248.5c-3.5,4.6-9,9.7-14.1,7.1c108.3-147.6,281.7-245.5,464-262s370.5,48.8,503.4,174.7
	c132.9,125.8,208.4,310.1,202,493.1c-0.1,4.2-4.5,9.8-6.8,6.4C2384.7,1546.6,2312.5,1364.5,2183.4,1238.8z M2063.4,1387
	c-74.2-77.5-176.6-127.3-283.4-137.6c-4.3-0.4-10-2.2-9.8-6.5c109.6,8,215.7,57,292.8,135.2c77.2,78.2,124.7,185,131.2,294.7
	c0.2,3.5-2.6,8.7-5.2,6.3c-0.8-0.7-1-1.9-0.7-2.9C2182.7,1569.1,2137.5,1464.5,2063.4,1387z M2058.8,1640.9
	c-1.6-1.4,1.7-3.8,3.3-2.5c1.6,1.4,1.4,3.9,1,6c-0.2,1-0.5,2.2-1.4,2.7c-1.3,0.7-3-0.5-3.3-1.9c-0.3-1.5,0.3-3,0.9-4.3
	L2058.8,1640.9z M2057.1,1524c-3-1.3-5.3-3.8-7.4-6.2l-90.8-102.7c-3.2-3.7-6.7-7.9-6.4-12.8s7-8.9,10.2-5.3
	c33.2,37.4,66.4,74.8,99.5,112.2c3.3,3.7,6.7,9.1,3.8,13.1C2064,1524.8,2060.1,1525.2,2057.1,1524z M1845.1,1435.5
	c-50.4-20.6-106.9-26.1-160.3-15.7c-53.5,10.4-103.8,36.6-142.9,74.5c-9.5,9.2-21.8,19.9-34.1,14.9c0.8-6.1,5.1-11.1,9.3-15.6
	c38.2-41,88-71,142-85.7c54.1-14.7,112.2-14,165.9,2.1c107.4,32.1,192.7,128.4,211.8,238.8c-2.6,4.8-10.2,4.3-14.1,0.6
	c-3.9-3.8-5.2-9.4-6.5-14.7C1995.3,1546,1929.5,1469.4,1845.1,1435.5z M2002.1,1650.1c-1.5,0.1-2.9-0.6-4.2-1.3l-37.3-20.7
	c-7.7-4.3-15.9-9.1-19.4-17.2c-22.9-53.5-68.2-97-122.6-117.8c-13.9-5.3-28.3-9.2-43-11.6c-9.4-1.5-18.9-2.5-28.4-2.8
	c-35.8-1.2-71.9,6.5-103.8,22.7c-10.5,5.3-21.1,11.6-32.8,11.8c-23.2,8-49.1,7.9-72.3-0.2c67.5-72.5,176.3-103.5,271.9-77.6
	c95.6,25.9,173.8,107.7,195.5,204.4C2006.8,1643.8,2006.3,1649.8,2002.1,1650.1z M1418.6,1462.4c0.7-4.5,4.3-7.9,7.8-11
	c8.5-7.6,17-15.2,25.5-22.7c25.7-22.8,51.3-45.7,77-68.5c5.1-4.6,13.8-8.9,17.8-3.4c1.1,6.1-4,11.4-8.7,15.5
	c-37.2,32.8-74.5,65.6-111.7,98.4C1422.1,1472.3,1417.9,1466.9,1418.6,1462.4z M1416.9,1447.5c-3.1,2.7-7.2,5.6-10.9,3.9
	c-3.2-1.5-4.2-5.9-3-9.2s4-5.9,6.6-8.2c34.5-30.6,69-61.2,103.5-91.9c4.1-3.6,9.2-7.5,14.5-6.2c3,1.7,3.6,6,2.4,9.2
	c-1.3,3.2-3.9,5.6-6.5,7.9C1488,1384.6,1452.4,1416,1416.9,1447.5z M1442.8,1468.2c34-30.2,68.1-60.4,102.1-90.6
	c2.8-2.5,5.9-5.1,9.6-5.9c3.7-0.7,8.3,1.3,8.9,5c0.6,3.5-2.3,6.5-4.9,8.9c-38.1,34.9-77,69-116.6,102.2c-1.8-2.4-4.4-4.3-7.3-5.1
	C1433.7,1477,1438.5,1472.1,1442.8,1468.2z M1455.2,1489.3c0.2-0.6,0.6-1,1.1-1.4c37.7-34,76-67.4,114.9-100c4.3,0.5,6.6,5.8,5.5,10
	c-1.1,4.2-4.5,7.3-7.7,10.2c-28.4,25.6-56.9,51.3-85.3,76.9c-3.8,3.5-7.8,7-12.6,8.8s-10.7,1.7-14.6-1.7
	C1455.6,1491.4,1454.9,1490.4,1455.2,1489.3z M1586.8,1410.7c-1.7,1.7-3.3,3.3-5,5l-3-3c2.3-2.3,4.7-4.7,7-7
	C1586.9,1407.1,1587.2,1409,1586.8,1410.7L1586.8,1410.7z M1684.3,1302.9c2-0.6,4.2-0.5,6.3-0.3c45.6,2.7,91.3,5.3,136.9,8
	c5,0.3,10.5,0.8,14.3,4.1s4.3,10.7-0.3,12.8c-53.6-2.9-107.2-6.4-160.8-10.4c-3.9-0.3-4.6-6.2-2.4-9.5
	C1679.7,1305.3,1681.8,1303.6,1684.3,1302.9z M1680.2,1280.9c2.2-2.1,5.5-2,8.5-1.8l144.4,8.9c3.3,0.2,6.8,0.5,9.7,2.1
	s5,5.2,3.9,8.4c-1.6,4.4-7.5,4.9-12.1,4.6c-46.9-2.7-93.7-5.5-140.6-8.2c-4.2-0.2-8.7-0.6-12-3.1
	C1678.6,1289.3,1677.1,1283.8,1680.2,1280.9z M1679.2,1329.6c3.9-3.4,9.6-3.3,14.7-2.9l145.8,9.6c4.7,2.6,5.8,10.1,2,13.9
	l-160.2-8.7C1676.3,1341.2,1675.3,1333,1679.2,1329.6z M1688.3,1350.5c46.4,2,92.7,4.8,139,8.5c4,0.3,8.2,0.7,11.5,3
	c3.3,2.3,5.1,7.3,2.6,10.5c-2.1,2.7-6,3-9.4,3c-20.9,0.1-41.8-1-62.5-3.2c-3.6-3-8.9-2.2-13.5-1.7c-9.7,1.2-19.5,0.5-29.2-0.2
	c-11.5-0.8-23-1.7-34.5-2.5c-5.2-0.4-10.7-0.9-14.7-4.1c-1.8-1.4-3.2-3.4-3.3-5.7C1674.1,1352,1682.3,1350.2,1688.3,1350.5z
	 M1835.7,1390c-2.1,0.3-4.2-1.4-4.4-3.4c0.5-0.6,1-1.3,1.6-1.9l0.3,0.4c1.1-1.8,4.2-1.6,5.1,0.3
	C1839.2,1387.1,1837.7,1389.7,1835.7,1390z M1682.5,1378.8c-0.8,1.3-3,1.2-3.7-0.2l0,0.1c-0.7-0.7-1.4-1.4-2.1-2.1
	C1678.7,1375.1,1682,1376.4,1682.5,1378.8z M1920.7,1428.6c1.1-2.6,5-2.9,7.3-1.2c2.3,1.7,3.3,4.6,4.2,7.3c-0.8,1-1.7,2-2.5,2.9
	c-1.3-1.3-2.7-2.7-4-4h0L1920.7,1428.6z M2024.4,1539.5c1.3-0.5,2.7,0.5,3.7,1.5c1.6,1.5,3.3,3.1,3.9,5.3c0.6,2.1-0.2,4.9-2.3,5.5
	c-1.7-2.1-3.3-4.3-5-6.4C2023.3,1543.5,2022.2,1540.3,2024.4,1539.5z M2035.6,1537.4l-97.1-109.8c-3.2-3.6-6.5-8.9-3.7-12.8
	c1.9-2.5,5.7-2.9,8.6-1.7c2.9,1.2,5.1,3.7,7.2,6c30.6,34.7,61.3,69.4,91.9,104c2.6,3,5.4,6.2,5.9,10.1c0.6,3.9-2.2,8.6-6.2,8.4
	C2039.5,1541.6,2037.4,1539.4,2035.6,1537.4z M2066.5,1501c-30.3-34.2-60.6-68.4-90.9-102.6c-2.5-2.8-5-5.7-5.8-9.4
	c-0.8-3.6,1.1-8.1,4.7-8.9c3.7-0.8,7,2.3,9.5,5.2c32.6,37.2,65.2,74.3,97.7,111.5c1.4,1.6,2.8,3.3,3,5.4c0.3,4-4.7,6.8-8.6,5.9
	C2072.1,1507.2,2069.2,1504,2066.5,1501z M2102.8,1488.7c-0.7,3.7-5.4,5.4-9,4.3c-3.6-1.1-6.3-4-8.8-6.8
	c-30.8-34.8-61.6-69.6-92.5-104.3c-2.3-2.6-4.7-5.4-5.6-8.8c-0.9-3.4,0.3-7.6,3.5-9c4.3-1.8,8.7,2,11.8,5.5
	c32.3,37,64.6,74,96.9,110.9C2101.2,1482.9,2103.4,1485.7,2102.8,1488.7z M2106.1,1637.5c2.6,1.4,3.4,4.8,3.8,7.8l0.6,4.2
	c0.4,2.8,0.8,5.7,0.1,8.5c-0.7,2.8-2.8,5.3-5.6,5.7c-3,0.4-5.8-1.8-7.1-4.5c-1.3-2.7-1.4-5.8-1.5-8.8c-0.1-3.3-0.1-6.7,1.5-9.6
	C2099.4,1637.9,2103.2,1636,2106.1,1637.5z M2072.5,1646.6c0.5-4.5,3.4-8.6,7.5-10.6c2.5,1,4.7,2.8,6.1,5.1c2,3.2,2.6,7.2,1.6,10.8
	c-0.4,1.4-1.1,2.9-2.4,3.5c-1.3,0.6-3.3-0.4-3.1-1.9c-1.5,2.3-5.2,2.3-7.2,0.5C2072.8,1652.3,2072.2,1649.3,2072.5,1646.6z
	 M2073.2,1723.1c0.3-0.9,0.9-1.6,1.6-2.3c4.7-5.2,10-10.8,17-11.3c1.3-0.1,3,0.4,3,1.6c0,0.7-0.5,1.3-1,1.8
	c-5.5,5.5-11.5,10.3-18.1,14.4C2073.9,1726.9,2072.7,1724.8,2073.2,1723.1z M2111.5,1706.4c0.9-0.8,2.4-0.4,3.5,0
	c2,0.8,4.4,2.9,3,4.5c-2.3,2.6-4.8,5-7.6,7c-11.2,8.1-20.5,19-32.6,25.6c-1.2-1.2-2.3-2.3-3.5-3.5
	C2086.7,1728.8,2099.1,1717.6,2111.5,1706.4z M2084.1,1749.3c6.3-5.5,12.6-11,18.9-16.5c3.3-2.9,6.7-5.8,10-8.8
	c4.5-4,9.1-8,13.1-12.5c1.3-1.4,3.9-2.8,4.7-1c0.6,1.4,2.6,1.2,4.2,0.9s3.7,0.4,3.4,1.9c-0.1,0.7-0.7,1.1-1.3,1.5
	c-17.3,12.1-33.7,25.6-48.8,40.3c-1.7,1.7-4.3,3.5-6.3,2.2C2079.2,1755.6,2081.6,1751.5,2084.1,1749.3z M2118.6,1652.7
	c0.5-6.2,3-13.8,9.2-14.4c3.4,1.1,5.5,4.4,6.4,7.9c1.5,5.9,0,12.2-1.5,18.1c-1.1,4.4-8,4.8-11.1,1.4
	C2118.5,1662.3,2118.3,1657.2,2118.6,1652.7z M2089.6,1763.8c10.5-9.2,21-18.3,31.5-27.5c5-4.4,10-8.8,14.5-13.7
	c2.7-3,5.3-6.2,9-7.9s8.7-1.2,10.8,2.2c-11.1,9-22.1,18.1-33,27.3c-8.4,7.1-16.8,14.2-25.3,21.3c-1.5,1.3-3.3,2.7-5.3,2.5
	C2089.7,1767.9,2088.1,1765.2,2089.6,1763.8z M2143.1,1656.2c-0.6-3.2-0.9-6.5,0.1-9.5c0.9-3.1,3.4-5.8,6.6-6.2
	c3.4-0.4,6.8,2.4,7.2,5.8c0.3,3.1-0.9,7.3,2,8.3c-5.1,3.7,1.1,13.7-3.9,17.6c-3.7,2.9-8.7-1-11.6-4.6c-1.5-1.8-3.1-4.1-2.4-6.4
	C2141.5,1659.4,2143.4,1658,2143.1,1656.2z M2100.7,1773.6c0.5-1.8,2-3.1,3.4-4.4c15.3-13.4,30.6-26.8,45.9-40.3
	c2-1.7,3.4-4,5.2-5.9c1.9-1.9,4.5-3.3,7.1-2.6s4,4.4,2,6.1c-19.3,16.6-38.6,33.1-57.9,49.7c-1,0.8-2.1,1.7-3.3,1.6
	C2101.2,1777.7,2100.2,1775.4,2100.7,1773.6z M2164.8,1653.9c3.5-51.2-13.4-102.1-39.2-146.4c-25.8-44.3-60.4-82.8-95.3-120.3
	c-14.3-15.3-28.7-30.7-45-43.8c-74-59.9-175.9-69.1-271-71.1c-17.7-0.4-35.5-0.6-53.2,1.2c-54.7,5.4-106.2,29.8-151.1,61.6
	c-44.9,31.8-83.8,71.1-122.5,110.3c-3.5,3.6-9.1,7.4-13.1,4.3c69-100.4,181.4-170,302.1-187c120.7-17,247.9,18.8,342,96.3
	c94.1,77.5,153.7,195.4,160.2,317.1c-4.8,2.1-10.5-1.6-12.6-6.5C2163.9,1664.7,2164.4,1659.2,2164.8,1653.9z M1367,1442.1
	c-1.3-1.7-2.6-3.5-4-5.2c44.9-64.3,106.6-116.7,177.4-150.5s150.4-48.9,228.6-43.3c-0.2,1.7-0.4,3.5-0.6,5.2
	c-3.2-0.3-6.5-0.7-9.7-0.9c-14.7-1-29.4,0.4-44.1,1.7l-30,2.8c-11.5,1.1-23,2.1-34.4,4.1c-10.4,1.8-20.7,4.2-30.9,7.1
	C1517.9,1291.2,1427,1355.7,1367,1442.1z M123.8,1105.2c-0.5-0.2-0.7-0.8-0.9-1.3c-1-3.4-0.4-7.2,1.6-10.1c1.2-1.7,2.7-3,4.3-4.3
	c10.3-8.8,20.6-17.5,31-26.3c2.3-1.9,4.7-3.9,7.7-4.2c3-0.2,6.3,2.3,5.6,5.2c-0.4,1.5-1.6,2.6-2.8,3.5c-6.9,5.7-13.7,11.4-20.6,17.1
	c-2,1.7-4.1,3.4-6.1,5.1c-5.8,4.8-11.7,9.7-17.5,14.5C125.4,1105,124.5,1105.5,123.8,1105.2z M132.2,1127c-1.7-1.3-2-3.9-1.2-5.9
	c0.8-2,2.4-3.6,4-5c9.2-8.6,19.1-16.5,28.9-24.5c4.7-3.9,9.4-7.8,14.1-11.7c5.1-4.2,10.1-8.4,15.2-12.6c3.5-2.9,9.4-2.1,11.9,1.6
	c-21.2,18.5-42.4,37.1-63.7,55.6C138.8,1126.8,134.9,1129.2,132.2,1127z M143.5,1143.3c0.2-2.5,2.3-4.5,4.3-6.1
	c4.6-3.9,9.3-7.8,13.9-11.7c8.5-7.2,17-14.3,25.5-21.5c10.7-9,21.4-18,32.1-27.1c1.9-1.6,3.9-3.3,6.4-3.6s5.3,1.2,5.5,3.7
	c0.1,2-1.5,3.6-3,4.9c-15.1,13.4-30.5,26.4-46,39.3l-32.7,27.4C146.5,1149.2,143.3,1146.4,143.5,1143.3z M159.3,1165.5
	c-2.1-3.1,1.1-7,4-9.5l84-70.6c1.9-1.6,3.9-3.2,6.4-3.6c2.5-0.3,5.3,1.3,5.4,3.8c0,1.9-1.6,3.5-3,4.8
	c-28.4,24.4-56.9,48.9-85.3,73.3C167.3,1166.5,161.7,1169.2,159.3,1165.5z M178.5,1187.4c-2.7,0.5-4.9-2.9-4.3-5.6s2.8-4.7,5-6.5
	c33.5-28.4,66.9-56.9,100.4-85.3c3.1-0.7,5.7,3.2,5.1,6.4c-0.7,3.2-3.3,5.5-5.7,7.5c-32.5,27.3-65,54.6-97.5,81.9
	C180.5,1186.5,179.6,1187.2,178.5,1187.4z M194.9,1205.2c-2.8,0.2-4.7-3.4-4-6.1s3-4.8,5.2-6.6l110.1-92.5c2.8,0.7,5.3,2.5,6.9,4.9
	c-2.9,4.6-7.2,8.2-11.4,11.7c-34.4,28.9-68.7,57.7-103.1,86.6C197.6,1204.2,196.4,1205.1,194.9,1205.2z M218.7,1218.4
	c-2.6,2.1-5.5,4.4-8.8,4s-5.6-5.3-2.8-7.1l117.1-98.6c4.5-3.8,12.4-7,15-1.7c-4.5,6.8-10.8,12.2-17.1,17.4
	c-26.1,21.7-52.2,43.5-78.3,65.2C235.4,1204.5,227,1211.4,218.7,1218.4L218.7,1218.4z M224,1238.6c1-6.2,6.1-10.7,10.9-14.7
	c38.2-32.2,76.5-64.4,114.7-96.5c4.5-3.8,10.8-7.8,15.9-4.7c-2.1,6.5-7.5,11.2-12.7,15.6c-39.9,33.5-79.8,67-119.8,100.4
	C230.3,1240.1,226.8,1240.1,224,1238.6z M243.7,1256.2c-2.7-2.8,0.5-7.2,3.4-9.7c46.2-39.1,92.5-78.1,138.7-117.2
	c2.8,2.2,5.6,4.4,8.4,6.5c-47,39.4-94.1,78.9-141.1,118.3C250.4,1256.5,246.1,1258.8,243.7,1256.2z M264.5,1274.3
	c-2.5-0.6-3.5-3.8-2.8-6.2s2.8-4.2,4.7-5.8c48.6-41.5,97.6-82.6,146.8-123.2c2.8,2.1,5.5,4.2,8.3,6.3
	c-50.5,42.2-101,84.4-151.4,126.6C268.6,1273.3,266.6,1274.8,264.5,1274.3z M284.3,1289c-3,0-6-3.1-4.7-5.8l124.7-105
	c2.9-2.5,6.7-5.1,10.2-3.6c-3.9,12.7-14.7,21.9-25,30.4c-32.4,26.7-64.9,53.4-97.3,80.1C289.8,1287,287.2,1289,284.3,1289z
	 M303.8,1305.4c-2.6-0.5-3.8-3.9-3-6.5c0.8-2.6,3-4.4,5.1-6.2c34-28.3,68-56.7,102-85c3.2,0.3,4.8,4.3,4,7.4
	c-0.9,3.1-3.4,5.3-5.9,7.4c-31.9,27.2-64.1,54-96.5,80.5C307.8,1304.4,305.9,1305.8,303.8,1305.4z M320,1319.9
	c-2.4-2.8,0.6-6.9,3.5-9.3c28.5-23.9,57.1-47.9,85.6-71.8c2.7-2.2,6.9,1.3,6.6,4.8c-0.3,3.5-3.2,6.1-5.9,8.3
	c-26.7,22.1-53.5,44.1-80.2,66.2C326.8,1320.4,322.4,1322.6,320,1319.9z M344.4,1335.9c-2.6,0.2-5.6-1.8-5.2-4.4
	c0.2-1.5,1.4-2.7,2.6-3.8c24.2-21.4,48.9-42.1,74.2-62.2c1.6-1.3,3.6-2.7,5.6-2.3c2.7,0.5,3.9,4,3.1,6.6c-0.9,2.6-3.1,4.5-5.2,6.3
	c-22.7,18.7-45.5,37.4-68.2,56.1C349.1,1333.9,347,1335.6,344.4,1335.9z M361.8,1349.8c-1.9-2.2-0.3-5.7,1.6-7.9
	c4.4-5.3,10.1-9.4,15.6-13.7c15-11.4,29.3-23.7,42.9-36.7c3.1-2.9,8-6,11.1-3c1.6,1.6,1.6,4.3,0.6,6.4s-2.8,3.6-4.6,5
	c-19.3,16-38.5,32.1-57.8,48.1C368.5,1350.3,364.1,1352.5,361.8,1349.8z M387.8,1364.3c-2.8,0.1-5.8-2.3-5.2-5
	c0.3-1.3,1.4-2.3,2.4-3.2c18.1-16.2,36.5-31.8,55.4-47c0.8-0.7,1.7-1.3,2.8-1.3c0.7,0,1.4,0.5,1.9,1c1.8,1.8,2.4,4.8,1.2,7.1
	c-0.6,1.2-1.7,2.2-2.7,3.1c-15.6,14.5-31.8,28.4-48.6,41.7C393,1362.4,390.6,1364.1,387.8,1364.3z M403.7,1376.9
	c-1.2-1.4-1.4-3.8,0-5c15-12.5,30-25,45-37.5c2-1.7,4.2-3.4,6.7-3.6c2.6-0.3,5.5,1.7,5.2,4.3c-0.2,1.5-1.3,2.6-2.4,3.7
	c-15.5,14.9-32.2,28.6-49.9,40.9C406.7,1379.1,404.9,1378.4,403.7,1376.9z M431.4,1393.5c-3.3,0.8-6-3.4-5.1-6.7
	c0.9-3.3,3.9-5.5,6.7-7.4c9.9-7.1,19.4-15,28.2-23.4c1.9-1.8,3.9-3.7,6.5-4.4c2.5-0.7,5.8,0.4,6.5,2.9c0.8,2.6-1.4,5.1-3.4,7
	c-5.1,4.7-10.5,9.1-15.8,13.5c-7,5.7-13.9,11.4-20.9,17C433.2,1392.6,432.4,1393.3,431.4,1393.5z M451,1395.5
	c11-8.5,22.1-17.1,33.1-25.6c0.5,1.2,2.1,1.9,3.4,1.5c1.8-0.6,3.5,1.7,3.2,3.5c-0.3,1.9-1.9,3.2-3.3,4.5c-11,9.3-22.1,18.7-33.1,28
	C449,1406.7,446.9,1398.7,451,1395.5z M472.9,1411.9c0.7-1.8,2.2-3.2,3.7-4.4c5.4-4.7,10.9-9.5,16.3-14.2c1.9-1.6,3.8-3.3,6.2-3.8
	s5.4,0.5,6.1,2.9c0.8,2.5-1.1,4.9-2.9,6.8c-7.8,8-16.7,14.9-26.4,20.3C473.2,1418.2,471.8,1414.7,472.9,1411.9z M517.8,1419.5
	c-2.2,1.8-4.4,3.6-6.6,5.4c-3.7,3-8.3,6.2-12.9,5c-1.1-0.3-2.1-0.9-2.7-1.8c-1.4-2.4,1-5.1,3.1-6.8c4.2-3.4,8.3-6.8,12.5-10.2
	c3.1-2.5,7.9-4.9,10.6-2C524.6,1412.2,521,1416.9,517.8,1419.5z M536.8,1434c-1.9,3.3-4.4,6.7-8.1,7.8c-3.7,1.1-8.5-1.4-8.4-5.2
	c0.3-5.7,9.5-6.3,12-11.4c1.2-2.4,5.3-1.3,6.2,1.3C539.4,1429,538.2,1431.7,536.8,1434z M553,1453.4c-3.9,1.2-8.4-2.2-8.4-6.3
	c0-2.6,2.9-4,5.4-4.9c1.3-0.5,2.7-0.9,4-0.6c1,0.3,1.8,1,2.4,1.8C558.7,1446.8,556.9,1452.2,553,1453.4z M573.8,1463.7
	c-1.7-1.7-3.3-3.4-5-5c1.2-0.7,2.6-1.4,4-1.1c1.4,0.3,2.6,1.9,1.9,3.1l0,0.1C575.1,1461.7,574.7,1463,573.8,1463.7z M624.6,1487.4
	c-2.5,0.1-4.8-1.3-6.9-2.7c-40.3-26.9-70.8-65.7-100.3-104.2c-39.2-51.1-78.8-105.2-90.6-168.5c-1.4-7.8-2.5-15.6-2.1-23.5
	c0.7-16,7.4-31.7,18.4-43.4c4.5,5.4,12.1,6.5,18.8,8.5s13.9,7,13.4,14c-4.3,60.5,10.7,121.6,38.6,175.4
	c27.9,53.8,68.4,100.6,115,139.4C629.6,1484.8,627.1,1487.3,624.6,1487.4z M2200.7,2175.5c-127.2,122.6-304.6,191.5-481.2,186.7
	c-176.6-4.8-350.1-83.1-470.4-212.5s-186-308-178-484.5c9.2,25.3,8.3,53,9.5,79.9c1.9,42.7,9.3,85,20.7,126.2
	c65.8,237.1,274.6,428.2,516.6,472.9s505.3-59.3,651.4-257.3C2252.8,2120.7,2227.7,2149.4,2200.7,2175.5z M1261.6,2125.8
	c110.8,122.5,270.7,199.3,435.6,209.2c5.6,0.3,13.2,3.4,11.5,8.7c-167.2-7.8-330.3-83.2-444.6-205.5
	c-114.3-122.3-178.6-290-175.2-457.3c0.1-5.1,3.9-12.4,8.1-9.5C1090.4,1836.5,1150.8,2003.3,1261.6,2125.8z M1390.4,1649.5
	c2.8-1.8,7.3-1.6,8.7,1.4c-14.3,12.4-28.2,25.3-41.5,38.7c-3,3-8.8,2.4-11.1-1.2c0.9-1.1,1.8-2.1,2.8-3.1c-3.3,0.5-6.7,0.7-10.1,0.5
	c-3.4-0.3-7.5-1.8-7.8-5.2c-0.6-3.3,2.7-6,5.5-7.9c3.9-2.8,7.8-5.6,11.7-8.5c10.1-7.2,20.4-14.5,27.4-24.8c1.2-1.8,2.6-4,4.8-4.3
	l0,0c3.6-0.5,5.5,4.3,5.2,8c-0.1,4.5-0.9,9-2.4,13.3C1385.8,1654.1,1387.6,1651.2,1390.4,1649.5z M1659.1,1972.8
	c96.4,28.3,207,0.8,279-69.3c4.7-4.6,9.4-9.4,15.3-12.2c5.9-2.8,13.6-3.1,18.6,1.1c-48.5,58.4-119.7,97.5-195,107
	s-154-10.6-215.5-55.2c-61.5-44.6-105.1-113-119.5-187.6c-0.3-1.6-0.6-3.3-0.2-5c1.3-5.3,9.2-6.1,13.4-2.6c4.1,3.5,5.5,9.3,6.7,14.6
	C1484.5,1861.5,1562.7,1944.5,1659.1,1972.8z M1473.4,1752.3c33,6.9,62.8,28.1,80.2,57c27.1,45.2,71.1,80,121.4,96
	c50.2,16,106.3,13,154.6-8.2c34.2-15.1,73.3-19,109.8-11c-64.9,69.7-167.8,101.4-260.7,80.5c-10.4-2.3-20.6-5.3-30.6-8.8
	c-86.7-30.6-155.3-107.5-176.1-197C1471.2,1757.8,1470.8,1753.9,1473.4,1752.3z M1754.5,2335.9c15.6-0.8,31.2-1.5,46.8-2.9
	c30.2-2.6,60.1-7.5,89.6-14.5c140.4-33.6,267.5-118.2,355.6-232.6c2.8-3.7,8-7.7,11.4-4.6c-61,82.6-142,150.3-234,195.8
	c-92.1,45.5-195,68.6-297.7,66.9c-5.9-0.1-12.8-0.9-15.7-6C1725,2337.3,1739.8,2336.6,1754.5,2335.9z M1709.1,2151.6
	c-3.7,0.5-7.6-0.7-10.3-3.3c7.7-1.3,15.7-1.1,23.4,0.6c3.8-2.4,9.2-1.8,12.4,1.3c-2.9,3-7,6.1-10.7,4.3c-3.4-1.7-7.8-1.2-10.7,1.2
	C1711.5,2157.1,1711.3,2151.3,1709.1,2151.6z M1744.8,2150.4c11.4-2.7,23.2-3.6,34.8-2.7c1.6,0.1,3.7,1.2,3,2.6
	c-0.3,0.5-0.9,0.8-1.4,1c-3.1,1.3-6.7,2.6-9.8,1.3c-1.3-0.5-2.8-1.4-3.9-0.5c-4.7,4.1-13.6-1.2-17.7,3.4
	C1748.1,2153.9,1746.4,2152.1,1744.8,2150.4z M1827,2144.8c-4.6,3.2-10.8,6.4-15.5,3.2c-5.4,3.6-12.8,4.2-18.7,1.5
	c-0.8-0.4-1.6-0.9-2-1.7c1.8-2.2,5.2-2,8.1-2.2c4.9-0.4,9.5-2.7,14.3-3.9C1818,2140.6,1823.9,2141,1827,2144.8z M1826.8,2140.2
	c4-0.7,8-0.8,12-0.5c0.5-1.6,1.6-3.1,3.1-4c0.6,0.6,1.3,1.2,1.9,1.9c4.2-2.6,9.2-4,14.1-3.7c2.1,0.1,4.1-1.1,6-2.2
	c1.9-1.1,4-2.1,6.1-1.6s3.7,3.2,2.4,4.8c-0.6,0.8-1.6,1.1-2.6,1.3c-6.5,1.8-13,3.7-19.5,5.5c-3.9,1.1-9.4,1.5-10.9-2.3
	C1837.5,2144.4,1829.2,2144.9,1826.8,2140.2z M1898.1,2126c-4.7,1.8-9.7,3.5-14.7,3c-1.6,3.3-7,3.7-9.1,0.7l30-12.5
	c9.2-3.8,18.4-7.7,27.5-11.8c65.9-30.2,123.8-77.6,166.4-136.2c3.9-5.4,9.1-11.5,15.7-10.5C2061.2,2034.7,1984.8,2093.9,1898.1,2126
	z M2095.1,1958.4c-67.1,91.6-170.7,155.6-282.7,174.5c-111.9,18.9-230.9-7.5-324.3-72c-93.4-64.5-160.3-166.4-182.3-277.7
	c-4.1-21-6.8-42.6-3.3-63.7c10.4,5.8,10.2,20.5,9.7,32.4c-2,49.7,15,98.6,40.5,141.3c25.5,42.7,59.1,79.8,93.3,115.9
	c15.1,16,30.4,31.8,47.5,45.5c76.1,60.7,180,72.1,277.3,70.6c29.1-0.5,58.4-1.9,86.7-8.7c77.8-18.8,139.7-76,197.9-131.1
	c13.3-12.6,26.7-25.3,40-37.9C2099.4,1948.9,2097.6,1954.9,2095.1,1958.4z M1695.8,2149.5c-0.8-0.1-0.8-1.6,0-1.7
	C1696.7,2147.9,1696.6,2149.4,1695.8,2149.5z M1683.9,2149.7c-9.1,0.8-18.2-0.8-27.1-2.4c-4.9-0.9-9.8-1.8-14.7-2.7
	c-15.1-2.7-30.7-5.7-43.3-14.5c-0.7-0.5-1.6,0.2-2.3,0.6c-2,1.1-4.9,0.3-6-1.8c-10.2-1.6-20.1-4.9-29.2-9.8
	c-2.8-1.5-5.9-3.6-6.4-6.8c3.3-1.1,6.9,0.2,10.2,1.5c18.1,7.3,36.4,14.4,55.3,19.4c11.2,2.9,22.6,5.1,33.9,7.2
	c10.2,1.9,20.4,3.8,30.5,5.8c0.8,0.1,1.7,0.4,2,1.1C1687.3,2148.6,1685.4,2149.6,1683.9,2149.7z M1332.9,1750.5
	c-0.1,4.6-2.5,10.1-7.1,10.4c-2-0.5-4-1-5.4-2.5c-1.4-1.4-1.8-4.1-0.2-5.4c1-0.8,0.4-2.5-0.2-3.7c-2.4-5.3-0.6-11.4,1.1-16.9
	c0.5-1.4,1-2.9,2-4c2.1-2,5.7-1.4,7.7,0.5c2.1,2,2.9,4.9,3.2,7.7C1331.9,1740.9,1333,1745.9,1332.9,1750.5z M1342.5,1749.4
	c0.1-4,0.2-8,0.3-12c0-1.1,0.1-2.2,0.6-3.2c1.1-2.1,3.9-2.6,6.3-2.2c2.3,0.5,4.4,1.6,6,3.3c5.3,5.6,3.6,14.8-0.2,21.5
	c-1.3,2.2-3,4.5-5.5,4.9c-2.7,0.4-5.4-1.7-6.5-4.2C1342.4,1755.1,1342.4,1752.2,1342.5,1749.4z M1383,1748.8
	c-0.3,4.4-1.1,9.2-4.4,12.2c-3.3,3-9.9,2.2-10.7-2.2c-1-4.9-1.4-10-1.3-15c0-1.2,0.1-2.4,0.7-3.5c2-3.7,7.6-2.1,11.3-0.1
	c1.3,0.7,2.7,1.5,3.5,2.8C1383.2,1744.6,1383.1,1746.8,1383,1748.8z M1386.7,1908.4c3.3,1.4,5.8,4.3,8.2,7.1
	c28.9,33.8,58.7,66.9,89.3,99.2c3.4,3.6,7,7.6,7.7,12.5c0.7,4.9-3.2,10.8-8.1,10c-34.2-37.6-68.4-75.1-102.6-112.7
	c-3.6-3.9-7.3-9.7-4.3-14C1378.9,1907.4,1383.4,1906.9,1386.7,1908.4z M1551.1,1963.5c2.1,0.7,3.2,3,4.1,5.1l0.1,0
	c0.2,1.9-2.3,3.2-4.2,2.5c-1.8-0.7-2.9-2.5-3.9-4.1C1546.1,1965.1,1549,1962.8,1551.1,1963.5z M1635.5,2058.5
	c-1.6-3.6-0.8-8.6,2.7-10.3c1.8-0.9,3.8-0.8,5.8-0.7c46.5,2.6,93,5.2,139.5,7.8c7.6,0.4,16.9,2.1,19.1,9.4l-3,6.7
	c-47.2-2.6-94.4-5.2-141.5-7.8c-4.8-0.3-10.2-0.3-13.8,3c1.5,3.3,5.8,4,9.4,4.2c29.6,2.1,59.2,3.8,88.8,5.1
	c14,0.6,28.1,1.2,42.1,1.8c4.3,0.2,8.9,0.5,12.4,2.9s5.3,8,2.4,11.2c-2.3,2.5-6.2,2.5-9.6,2.3c-49.3-2.8-98.6-5.6-147.9-8.4
	c-2.2-0.1-4.5-0.3-6.3-1.6c-3.1-2.3-3.1-7.1-1-10.3c2.1-3.2,5.6-5.1,8.9-7C1640.4,2064.6,1637.1,2062.1,1635.5,2058.5z
	 M1705.3,2027.4c6.3,0.2,12.7,0.5,18.9-0.8c1.3,1.7,3.8,2.1,6,2.2c23.3,1.7,46.6,3.5,69.8,5.2c4.6,0.3,5.5,7.7,2,10.8
	c-3.5,3.1-8.6,3-13.3,2.7c-49.6-2.8-99.2-5.5-148.9-8.3c-3-4.1-4.1-9.5-2.9-14.4C1659.8,2025.6,1682.5,2026.5,1705.3,2027.4z
	 M1641.5,2010.7c0.9-1.8,4.3-1.9,4.7,0.1l0.6,0c1.8,0.8,2.5,3.4,1.3,5.1s-3.8,1.8-5.2,0.4
	C1641.5,2014.8,1640.6,2012.5,1641.5,2010.7z M1795.6,2017.4c2.8-0.7,5.7,2.4,4.9,5.1c-0.8,2.7-4.9,3.7-6.8,1.6
	S1792.8,2018.1,1795.6,2017.4z M1640.7,2094c39.7,2.2,79.5,4.4,119.2,6.6c5,0.3,10.4,0.8,13.9,4.4c8.7-5.6,21.6-3,27.4,5.6
	c-1.3,6.3-9.7,7.4-16.1,7.1c-18.1-0.9-36.2-1.8-54.3-2.7c-17.3-0.9-34.6-1.7-51.9-3.5c-12.6-1.3-25.3-1.4-37.9-0.4
	c-4.7,0.4-9.2-3.7-9.3-8.4C1631.6,2098,1636,2093.7,1640.7,2094z M1893.8,1985.9c1.1-0.3,2.3-0.7,3.4-0.3s1.8,1.9,1.1,2.7l-0.4-0.5
	c-1,1.7-2.1,3.4-3.8,4.2s-4.3,0-4.6-1.9C1889,1987.9,1891.6,1986.6,1893.8,1985.9z M2070.3,1960.1c-34.9,31.4-69.9,62.7-104.8,94.1
	c-3.5,3.1-7.4,6.5-12,7c-4.7,0.5-10.1-3.4-9.1-8c37.7-33.5,75.3-67.1,113-100.6c2.7-2.4,5.6-4.9,9.2-5.6c3.6-0.7,7.9,1.3,8.5,4.9
	C2075.5,1955,2072.8,1957.8,2070.3,1960.1z M2054,1943.5l-115.2,102.4c-4.9,0.8-8.7-5.3-7.6-10.2c1-4.9,5-8.5,8.8-11.8
	c34-29.6,68.1-59.1,102.1-88.7c2.5-2.2,5.2-4.5,8.5-5.2s7.3,0.8,8.2,4C2059.9,1937.6,2056.8,1941,2054,1943.5z M2037.3,1927.1
	c-36.3,32.1-72.6,64.2-109,96.3c-3.2,2.8-7.8,5.8-11.3,3.3c-4.3-6,1.7-13.9,7.2-18.9l99.8-89c2.8-2.5,5.8-5.1,9.5-5.9
	c3.7-0.7,8.2,1.2,8.9,4.9C2043.1,1921.5,2040.1,1924.7,2037.3,1927.1z M2017.5,1913.4c-34.6,30.6-69.2,61.3-103.7,91.9
	c-3,2.7-7,5.5-10.7,4c-3.3-1.4-4.4-5.9-3.2-9.3s4-6,6.7-8.3c31-27.4,62-54.7,92.9-82.1c3.6-3.2,7.8-6.6,12.7-6.3
	C2017.1,1903.6,2021.1,1910.2,2017.5,1913.4z M1451.9,1861.3c-4.3-1.9-6.3-7.6-4.3-11.7l5.9,4.1l-0.7,0.9
	C1455.4,1856,1454.7,1860.7,1451.9,1861.3z M1445.8,1866.1c29.9,33.3,59.9,66.6,89.8,100c6.2,6.9,12.6,17.3,6.7,24.5
	c-1.6-1.5-4.3-1.3-5.7,0.3L1435.2,1877c-4.1-4.6-8-12.6-2.9-16.1C1436.6,1857.8,1442.3,1862.1,1445.8,1866.1z M1522.1,1986.5
	c4.2,4.7,8.2,12.8,3,16.5c-4.5,3.1-10.2-1.3-13.8-5.3c-32.5-36.5-65.1-73-97.6-109.5c-1.9-5.8,2.4-14.3,8.1-12.2
	c1.6,0.6,2.8,1.9,4,3.2C1457.9,1914.9,1490,1950.7,1522.1,1986.5z M1417,1763.8c-1,0.2-1.9-0.5-2.6-1.2c-2.7-3.1-2.1-8.5,1.3-10.8
	c2.7,1.1,3.2,4.7,3.3,7.6C1419.1,1761.1,1418.8,1763.4,1417,1763.8z M1510,2009.5c3.3,3.6-1.5,9.9-6.4,9.7
	c-4.9-0.3-8.8-4.2-12.1-7.9c-5.7-6.4-11.4-12.7-17.1-19.1c-25.2-28.2-50.3-56.4-75.5-84.6c-2.1-2.4-4.3-4.9-5.2-8s0-6.9,2.9-8.4
	c4.1-2.1,8.7,1.6,11.8,5.1C1442.3,1934,1476.1,1971.8,1510,2009.5z M1406.5,1754.1c-1.1,4.2-3.9,8.3-8.1,9.4
	c-4.2,1.1-9.4-2.4-8.7-6.6c0.5-3.6,1.1-7.3,1.6-10.9c0.1-0.7,0.2-1.5,0.8-1.9c0.4-0.3,1-0.4,1.6-0.5c3.2-0.2,6.7,0.3,9.3,2.1
	C1405.6,1747.5,1407.3,1751,1406.5,1754.1z M1395.2,1682.5c0.5-1.7,2.3-3.2,4-2.7c1.7,0.4,2.3,3.3,0.7,4l0-0.1
	c-1.4,1.4-2.8,2.7-4.1,4.1C1395.1,1686,1394.6,1684.2,1395.2,1682.5z M1400,1669.2c-7.7,7.1-15.4,14.2-23.1,21.2
	c-2.6,2.4-7,4.7-9.1,1.9c-2-2.6,0.8-6.1,3.4-8.2c9.4-7.4,18.8-14.9,28.2-22.3c1.5-1.2,3.8,0.7,3.7,2.7S1401.4,1667.9,1400,1669.2z
	 M1379.4,1630.4c-12,11.6-24.6,22.6-37.2,33.6c-3.1,2.7-6.2,5.4-9.3,8.1c-4.8,4.2-9.6,8.3-15,11.6c-2.3-1-3-4.2-2.1-6.6
	c0.9-2.4,2.9-4.1,4.9-5.8c5-4.2,10.1-8.4,15.1-12.7c10.6-8.9,21.3-17.8,31.9-26.8c3.3-2.7,6.8-5.6,11.1-5.9c0.6,0,1.2,0,1.7,0.3
	C1381.7,1627.3,1380.5,1629.3,1379.4,1630.4z M1368.4,1620.7c-0.8,1.7-2.3,3.1-3.7,4.3c-15.9,13.9-31.8,27.8-47.7,41.6
	c-2.7,2.4-4.2,6-6.7,8.5s-7.4,3.7-9.5,0.7c-2.3-3.3,1-7.6,4.1-10.2c4.7-3.9,9.4-7.9,14.1-11.8c8.6-7.1,17.2-14.3,25.8-21.4l7.8-6.5
	c4.7-3.9,9.8-7.5,15-10.7C1369.1,1616.7,1369.2,1619,1368.4,1620.7z M1368.8,1956.2c46.2,66,110.5,119.2,183.9,152.3
	c0.5,1.6,0.2,3.4-0.7,4.8c-6.1-1.2-11.8-4.1-16.5-8.2c-11.5-2.2-22.2-8.2-30.2-16.7c-7.3-1.5-13.8-6.2-17.5-12.7
	c-0.4,2.1-3.5,1.4-5.2,0.2c-96.3-64.7-166.2-167.7-190.9-281.1c-2.5-11.5-4.5-23-6.1-34.6c-1.8-13.1-2.9-26.3-3.5-39.5
	c4.6,0.1,6.2,6.1,6.5,10.7C1294.5,1811.7,1322.6,1890.3,1368.8,1956.2z M2969.2,2223.6c-210.3-77.3-453.8-48.4-651.1-154.7
	c-69.1-37.3-128.9-89.5-194.6-132.6s-141.3-77.8-219.7-73c-50.1,3.1-97.9,22.1-147.6,29.2s-106.9-1-138-40.4
	c-172.5-218.2-405.6-388-666.2-485.3c48.1,23.7,94.7,50.5,139.4,80.2c12.3,8.7,24.6,17.4,36.9,26.2c3.4,2.4,7.7,4.9,11.8,5.5
	c-1.8,6.9-6.2,13.1-12.4,16.8c9.6-5.8,19.2-11.6,28.8-17.5c-5.9,9.5-11.9,18.9-17.8,28.4c10-6.7,20-13.4,30-20.1
	c-6.5,9.8-13.1,19.5-19.6,29.3c11.5-7.4,23-14.8,34.6-22.2l-26.9,33.2c12.6-7.2,25.1-14.5,37.7-21.7c-8.5,10.6-17.1,21.2-25.6,31.8
	c13.4-9.3,26.9-18.5,40.3-27.8c-10.5,13.5-21.1,27-31.6,40.5c15-11.1,29.9-22.2,44.9-33.2l-38.7,45.4c16.1-12.6,32.3-25.2,48.4-37.7
	c-10.3,18-23.7,34.2-39.6,47.5c17.4-11.5,34.7-23.1,52.1-34.6c-12.1,13.8-24.2,27.6-36.3,41.5l52.1-38.1
	c-16.6,18.1-33.1,36.3-49.7,54.4c20.3-15.1,40.6-30.2,60.9-45.3c-17.6,19.2-35.2,38.4-52.8,57.5l65.7-50.4
	c-16.4,19-32.8,37.9-49.3,56.9c21.1-16.3,42.2-32.6,63.2-48.9c-19.1,20.4-38.2,40.8-57.3,61.2c22.7-17.5,45.4-35,68.1-52.5
	c-15.9,18.1-31.9,36.2-47.8,54.3c19.8-14.9,39.5-29.8,59.3-44.7c-19.6,21.1-39.2,42.1-58.8,63.2c20.1-19,42.7-35.5,67-48.7
	c-15.2,16-30.3,31.9-45.5,47.9c20.2-15.7,40.5-31.3,60.7-47c-17.5,19.8-35,39.7-52.4,59.5c20.6-16.5,41.2-33,61.8-49.6
	c-4.5,33.6-42.7,53.5-76.5,51.7s-64.6-18.8-95.6-32.4c-111.5-48.6-236.3-54-355.1-79.7c-118.9-25.7-242.9-80.8-297.1-189.7
	c-29.4-59-34.5-126.6-39.2-192.3c218,78.6,469.7,51.6,672.2,164.3c69.3,38.6,129.3,91.9,195.8,135.2
	c66.5,43.4,143.8,77.5,222.8,70.2c49.7-4.6,96.6-25.2,145.9-33.3s106.8,0.1,136.4,40.3c162.4,220.1,391.6,390.2,649.3,481.9
	c-33.1-20.2-66.1-40.4-99.2-60.6c-4.6-2.8-13-3.1-13.9,0.9c0-5.6,1.9-11.1,5.1-15.7c-6,4.4-13.3,7.2-20.8,7.8
	c5.7-12.3-16.4-24.3-23.7-12.9c4.9-8.1,9.7-16.1,14.6-24.2c-9,5.4-18,10.7-27,16.1c2.1-10.1,8.2-19.3,16.6-25.3
	c-10.3,5-20.7,10.1-31,15.1c10.9-11.9,21.8-23.8,32.6-35.8c-14.7,10.7-29.3,21.3-44,32c7.9-15.2,19-28.8,32.3-39.6
	c-15.3,10.7-30.6,21.4-46,32c11-13.4,21.9-26.7,32.9-40.1l-46.4,30.8l43-47.3l-54.8,41.2c10.9-14.4,21.8-28.8,32.7-43.3
	c-11.8,14.9-28.2,26.1-46.3,31.9c12.4-13,24.8-26,37.2-39l-49.1,35c15.8-17.3,31.5-34.7,47.3-52c-18.4,16.6-39.2,30.8-61.4,41.9
	c17.9-17.8,35.8-35.7,53.7-53.5c-21.7,16-43.4,32.1-65.2,48.1c18.5-19.6,36.9-39.2,55.4-58.8c-21.3,15.6-42.6,31.3-63.8,46.9
	c11.9-14,23.9-28,35.8-41.9l-52.7,38.4c21.2-22.2,42.3-44.5,63.5-66.7c-24.9,19.8-49.8,39.6-74.6,59.4
	c18.7-20.6,37.5-41.2,56.2-61.9c-21.5,19.7-45,37.2-70,52.2c22.5-22.2,45-44.3,67.5-66.5l-76.5,55.9c21.1-21.1,42.3-42.1,63.4-63.2
	c-25.1,19.6-50.2,39.2-75.4,58.7c20.2-21.8,40.4-43.7,60.5-65.5c-24.6,18.2-49.2,36.4-73.9,54.6c20.8-20.7,41.6-41.4,62.4-62.2
	c-25,18.4-50,36.8-75,55.2c20.1-20.6,40.3-41.2,60.4-61.8c-23,17.7-46,35.5-69,53.2c18.6-20.1,37.3-40.1,55.9-60.2
	c-23.2,17-46.3,34-69.5,50.9c20.5-21.6,40.9-43.1,61.4-64.7c97.1,64.3,215.9,84.5,330.8,103.2s233.7,38.9,330.8,103.1
	C2932.4,1990.6,3002,2111.9,2969.2,2223.6z M3044.7,2200c-0.6,8.2-2.3,16.4-5.2,24.1c-2.3,6-6.2,12.4-12.6,13.2
	c-3,0.4-5.9-0.6-8.7-1.6c-10.7-3.7-23.6-10.4-22.8-21.7c1.4-19.5,0.9-39.2-1.5-58.6c-11.6-92.7-67.1-175.5-137-237.4
	c-4.1-3.6-8.4-7.4-10.4-12.6c20.5,2.1,36.3,18.5,50,33.9c48.6,54.6,96.3,111.3,127.9,177.2C3036.9,2142.6,3047,2171.1,3044.7,2200z
	 M3045.3,2130.7c2.3-7.7,7.9-14.4,15.2-17.9c1.7-0.8,3.2-2.1,4.7-3.3c15.2-12.9,30.3-25.8,45.5-38.7c2.5-2.1,5-4.2,6.9-6.8
	c3-4,10.7-1.9,11.4,3.1c-24.5,21.8-49.5,43.1-74.9,63.8c-1.4,1.1-2.9,2.3-4.6,2.5C3047.5,2133.6,3045.4,2132.5,3045.3,2130.7z
	 M3052.1,2223.1c0.2-7.8,6.6-13.8,12.6-18.9c36.6-31,73.3-62.1,109.9-93.1c3.4-2.9,9.5-5.3,11.5-1.3c1.4,2.9-1.3,6-3.8,8.1
	c-40.2,33.9-80.4,67.8-120.6,101.7C3058.9,2221.9,3055.4,2224.4,3052.1,2223.1z M3056.5,2246.7c0.2-4.1,3.6-7.2,6.7-9.8
	c41.7-35.1,83.3-70.2,125-105.2c4.8-4.1,10.5-8.4,16.7-7.5c1.6,4.1-2.1,8.2-5.4,11c-42.1,35.5-84.1,71-126.2,106.5
	C3068.4,2245.6,3061.8,2249.9,3056.5,2246.7z M3088.9,2258c-2.8,0.2-5.9-2.1-5.4-4.8c0.3-1.5,1.5-2.6,2.7-3.6
	c40.9-34.7,81.8-69.4,122.7-104c2.5-2.1,5.1-4.3,8.3-4.8c3.2-0.6,7,1.1,7.6,4.3c-42.9,36.3-85.8,72.7-128.7,109
	C3094,2255.9,3091.7,2257.8,3088.9,2258z M3107.7,2267.8c-1.5-2.9,1.2-6.1,3.7-8.2c38.4-32.3,76.7-64.6,115.1-96.8
	c2.5-2.1,5.2-4.3,8.4-5c3.2-0.7,7.2,0.6,8.3,3.7c-41.3,35.3-82.9,70.3-124.6,105.1C3115.3,2269.2,3109.7,2271.5,3107.7,2267.8z
	 M3136.1,2280.7c-2.8,0-5.7-3-4.4-5.5c0.4-0.7,1-1.3,1.7-1.8c6-5.1,12-10.2,18-15.3c8.5-7.2,17-14.4,25.5-21.6
	c23.5-20,47.1-40,70.6-60c1.9-1.6,4.2-3.3,6.6-2.6c2.5,0.8,3.5,4.1,2.6,6.6s-3,4.3-5,6l-108.1,90.4
	C3141.3,2278.8,3138.9,2280.7,3136.1,2280.7z M3162.1,2291.8c-2.7,0.4-5.9-1.4-6-4.1c-0.1-2.2,1.8-4,3.5-5.4
	c36.8-30.8,73.5-61.5,110.3-92.3c2.9,1.1,5.9,3.6,5.3,6.7c-0.3,1.8-1.8,3-3.1,4.2c-34.3,29-68.6,58-102.9,87
	C3167,2289.5,3164.8,2291.4,3162.1,2291.8z M3188.1,2300.3c-3.3-0.3-6-4.9-3.4-7c32.5-27.4,65-54.9,97.5-82.3
	c0.8-0.6,1.6-1.3,2.5-1.5c2.8-0.7,5.2,2.8,4.6,5.6s-2.9,4.9-5.1,6.8c-29.1,24.7-58.2,49.5-87.3,74.2
	C3194.3,2298.2,3191.4,2300.5,3188.1,2300.3z M3211.5,2311.4c-0.4-1.8-1.3-3.5-2.7-4.7c3.5-5.3,8.4-9.5,13.3-13.6
	c24.6-20.7,49.2-41.4,73.8-62.1c1.5-1.3,3.3-2.7,5.3-2.4c2.9,0.4,4.3,4.1,3.3,6.9c-1,2.8-3.5,4.6-5.8,6.4
	c-8.3,6.3-16.2,13-24.1,19.7c-10.3,8.7-20.5,17.5-30.8,26.2c-4.1,3.5-8.3,7-12.4,10.6C3225.4,2303.5,3219.1,2308.8,3211.5,2311.4z
	 M3237.7,2319c-1.6-1.2-1.8-3.7-1-5.6s2.4-3.2,4-4.5c11.3-9.5,22.7-19.1,34-28.6l10.6-9c4-3.4,8-6.7,12-10.1
	c4.6-3.9,9.2-7.8,13.8-11.7c0.9-0.8,1.9-1.6,3-1.8c3.1-0.6,5.5,3.5,4.5,6.6c-0.9,3.1-3.8,5.1-6.3,7c-4.8,3.5-9.2,7.4-13.7,11.3
	c-9.9,8.6-19.9,17.2-29.8,25.8c-7.5,6.5-15.2,12.7-23.2,18.7C3243.3,2319,3240,2320.8,3237.7,2319z M3274.8,2324.3
	c-1.9,1.2-4.1,2.3-6.4,2c-2.3-0.3-4.3-2.9-3.3-4.9c0.3-0.7,0.9-1.2,1.5-1.7c5.1-4.4,10.1-8.7,15.2-13.1c6.9-5.9,13.7-11.8,20.6-17.7
	c6.3-5.4,12.6-10.8,18.8-16.2c2-1.7,4.3-3.5,6.9-3.1c2.6,0.4,4.5,3.2,3.8,5.8c-0.5,1.8-2,3.1-3.4,4.3c-13.3,11.4-26.7,22.8-40,34.2
	C3284.1,2317.5,3279.7,2321.2,3274.8,2324.3z M3339,2301.5c-1.5,3.3-5,5.2-7.9,7.4c-1.4,1-2.6,2.2-3.8,3.3
	c-6.4,6-12.6,12.7-20.9,15.5c-1.6,0.6-3.4,1-5,0.5c-1.6-0.5-3.1-2.1-2.8-3.8c0.2-1.3,1.3-2.2,2.3-3.1c10.3-8.6,20.6-17.2,31-25.8
	c0.8-0.7,1.6-1.3,2.6-1.6C3338.1,2293.1,3340.5,2298.2,3339,2301.5z"/>
<path d="M2411.8,1941.9c-2.9,1.8-5.3,4.2-7.3,7C2407.2,1946.9,2409.7,1944.5,2411.8,1941.9z"/>
<path d="M1374.1,1663.8c-9.1,6.2-17.4,13.4-24.9,21.5c8.3-1.4,16.3-5.1,22.5-10.8c5.4-4.9,9.4-11.2,11.8-18c0,0-0.1,0.1-0.1,0.1
	C1380.8,1659.5,1377.4,1661.6,1374.1,1663.8z"/>
</svg>
